<?xml version="1.0" standalone="no"?>
<!DOCTYPE svg PUBLIC "-//W3C//DTD SVG 20010904//EN"
 "http://www.w3.org/TR/2001/REC-SVG-20010904/DTD/svg10.dtd">
<svg version="1.0" xmlns="http://www.w3.org/2000/svg"
 width="33px" height="33px" viewBox="0 0 250.000000 250.000000"
 preserveAspectRatio="xMidYMid meet">

<g transform="translate(0.000000,250.000000) scale(0.100000,-0.100000)"
fill="#4267B2" stroke="none">
<path d="M82 2480 c-32 -15 -47 -30 -62 -62 -19 -42 -20 -75 -20 -1173 0
-1081 1 -1132 19 -1165 10 -19 30 -44 45 -55 27 -20 42 -20 647 -23 l619 -2 0
485 0 485 -160 0 -160 0 0 190 0 190 159 0 158 0 6 193 c5 199 15 255 57 342
50 103 158 186 285 220 62 16 298 21 389 9 l46 -7 0 -167 0 -167 -137 -5
c-226 -7 -236 -19 -241 -255 l-4 -163 186 0 c171 0 186 -1 185 -17 0 -10 -10
-94 -22 -188 l-23 -170 -162 -3 -162 -2 0 -486 0 -485 339 3 c325 3 341 4 368
24 15 11 36 36 45 55 17 32 18 108 18 1167 0 1244 3 1177 -61 1223 l-34 24
-1140 2 c-1112 3 -1141 2 -1183 -17z"/>
</g>
</svg>
