<?xml version="1.0" standalone="no"?>
<!DOCTYPE svg PUBLIC "-//W3C//DTD SVG 20010904//EN"
 "http://www.w3.org/TR/2001/REC-SVG-20010904/DTD/svg10.dtd">
<svg version="1.0" xmlns="http://www.w3.org/2000/svg"
 width="33px" height="33px" viewBox="0 0 100.000000 100.000000"
 preserveAspectRatio="xMidYMid meet">

<g transform="translate(0.000000,100.000000) scale(0.100000,-0.100000)"
fill="#505061" stroke="none">
<path d="M0 500 l0 -500 500 0 500 0 0 500 0 500 -500 0 -500 0 0 -500z m573
246 c39 -16 82 -61 96 -99 6 -16 11 -59 11 -98 l0 -69 -57 -46 c-32 -25 -73
-53 -90 -62 -30 -14 -36 -14 -65 0 -18 9 -59 37 -90 62 l-58 46 0 69 c0 80 11
115 48 155 51 54 136 72 205 42z m-170 -356 c41 -29 82 -50 97 -50 15 0 56 21
97 50 39 28 74 50 77 50 3 0 6 -40 6 -89 0 -72 -3 -90 -16 -95 -20 -8 -308 -8
-328 0 -13 5 -16 23 -16 95 0 49 3 89 6 89 3 0 38 -22 77 -50z"/>
<path d="M448 664 c-35 -18 -48 -43 -48 -88 l0 -36 100 0 100 0 0 36 c0 46
-14 70 -50 89 -36 19 -67 19 -102 -1z"/>
</g>
</svg>
