<?xml version="1.0" standalone="no"?>
<!DOCTYPE svg PUBLIC "-//W3C//DTD SVG 20010904//EN"
 "http://www.w3.org/TR/2001/REC-SVG-20010904/DTD/svg10.dtd">
<svg version="1.0" xmlns="http://www.w3.org/2000/svg"
 width="33px" height="33px" viewBox="0 0 500.000000 500.000000"
 preserveAspectRatio="xMidYMid meet">

<g transform="translate(0.000000,500.000000) scale(0.100000,-0.100000)"
fill="#FF0000" stroke="none">
<path d="M510 4780 c-214 -15 -298 -62 -334 -190 -31 -109 -35 -339 -35 -2085
0 -1746 4 -1976 35 -2085 37 -131 117 -174 353 -191 164 -11 3778 -11 3942 0
236 17 316 60 353 191 31 109 35 339 35 2085 0 1746 -4 1976 -35 2085 -37 131
-117 174 -353 191 -150 10 -3809 9 -3961 -1z m2855 -1210 c272 -12 371 -27
459 -68 78 -37 115 -69 161 -137 90 -136 106 -246 112 -772 7 -567 -11 -778
-77 -919 -58 -121 -154 -196 -291 -229 -131 -30 -413 -39 -1229 -39 -779 0
-1077 9 -1200 35 -89 18 -171 63 -227 122 -135 143 -163 301 -163 927 0 638
31 803 176 940 104 98 203 124 524 138 285 13 1475 14 1755 2z"/>
<path d="M2180 2525 c0 -234 2 -425 5 -425 10 0 835 415 835 420 0 3 -189 101
-420 218 l-420 213 0 -426z"/>
</g>
</svg>
