<?xml version="1.0" encoding="iso-8859-1"?>
<!-- Generator: Adobe Illustrator 16.0.0, SVG Export Plug-In . SVG Version: 6.00 Build 0)  -->
<!DOCTYPE svg PUBLIC "-//W3C//DTD SVG 1.1//EN" "http://www.w3.org/Graphics/SVG/1.1/DTD/svg11.dtd">
<svg version="1.1" id="Capa_1" xmlns="http://www.w3.org/2000/svg" xmlns:xlink="http://www.w3.org/1999/xlink" x="0px" y="0px"
	 width="435.758px" height="435.758px" viewBox="0 0 435.758 435.758" style="enable-background:new 0 0 435.758 435.758;"
	 xml:space="preserve">
<g>
	<path d="M391.155,78.076H44.615C19.981,78.076,0,98.047,0,122.687V313.08c0,24.625,19.975,44.603,44.615,44.603h15.699
		c0-0.81-0.038-1.623,0.196-2.444l17.978-62.949c1.1-3.831,4.592-6.472,8.583-6.472h264.883c4.148,0,7.751,2.854,8.688,6.885
		l14.72,62.957c0.168,0.688,0.06,1.35,0.06,2.023h15.726c24.629,0,44.61-19.961,44.61-44.603V122.687
		C435.773,98.053,415.793,78.076,391.155,78.076z M34.058,262.774V160.745h36.638c-8.862,12.539-14.076,27.83-14.076,44.354
		c0,22.963,10.071,43.569,26.032,57.659H34.058V262.774z M133.506,249.465c-24.501,0-44.362-19.864-44.362-44.358
		c0-24.498,19.861-44.354,44.362-44.354c24.493,0,44.362,19.857,44.362,44.354C177.868,229.601,157.999,249.465,133.506,249.465z
		 M184.368,262.774c15.957-14.105,26.024-34.7,26.024-57.667c0-16.517-5.206-31.823-14.084-44.354h43.158
		c-8.868,12.54-14.078,27.83-14.078,44.354c0,22.966,10.071,43.577,26.032,57.667H184.368z M302.271,249.465
		c-24.485,0-44.358-19.864-44.358-44.358c0-24.498,19.873-44.354,44.358-44.354c24.501,0,44.366,19.857,44.366,44.354
		C346.637,229.601,326.771,249.465,302.271,249.465z M44.15,137.037v-23.662h347.478v23.662H44.15z M401.719,262.774h-48.582
		c15.953-14.105,26.028-34.7,26.028-57.667c0-16.517-5.214-31.823-14.078-44.354h36.632V262.774z"/>
	<path d="M139.589,174.641c-0.643-0.353-1.342-0.613-2.128-0.613c-0.471,0-0.896,0.134-1.318,0.269
		c-0.878-0.074-1.735-0.269-2.629-0.269c-17.138,0-31.072,13.941-31.072,31.071c0,17.136,13.94,31.073,31.072,31.073
		c17.138,0,31.08-13.938,31.08-31.073C164.585,190.051,153.821,177.482,139.589,174.641z M155.659,205.107
		c0,2.254-0.437,4.396-1.066,6.448l-7.304-4.218c-2.134-1.234-4.859-0.501-6.089,1.633c-1.234,2.136-0.503,4.861,1.631,6.088
		l7.472,4.323c-3.148,3.695-7.41,6.408-12.331,7.422v-8.924c0-2.469-1.994-4.461-4.458-4.461c-2.465,0-4.458,1.992-4.458,4.461
		v8.924c-4.934-1.014-9.195-3.727-12.343-7.438l7.468-4.308c2.134-1.227,2.864-3.952,1.633-6.088
		c-1.234-2.134-3.976-2.867-6.096-1.633l-7.283,4.21c-0.629-2.06-1.07-4.194-1.07-6.44c0-2.615,0.537-5.087,1.376-7.418l6.989,4.038
		c0.697,0.398,1.463,0.593,2.218,0.593c1.549,0,3.048-0.801,3.871-2.226c1.23-2.136,0.495-4.869-1.631-6.096l-6.833-3.941
		c3.934-4.22,9.47-6.906,15.655-7.049v8.181c0,2.464,1.994,4.46,4.458,4.46c2.465,0,4.458-1.996,4.458-4.46v-6.556
		c2.967,1.227,5.574,3.102,7.736,5.418l-6.838,3.947c-2.136,1.234-2.868,3.959-1.633,6.096c0.824,1.424,2.322,2.226,3.867,2.226
		c0.763,0,1.525-0.188,2.23-0.593l7.003-4.045C155.126,200.006,155.659,202.484,155.659,205.107z"/>
	<path d="M302.271,174.028c-17.136,0-31.065,13.941-31.065,31.071c0,17.136,13.93,31.073,31.065,31.073
		c17.14,0,31.077-13.938,31.077-31.073C333.348,187.969,319.41,174.028,302.271,174.028z M323.361,211.555l-7.31-4.218
		c-2.128-1.234-4.856-0.501-6.083,1.633c-1.234,2.136-0.509,4.861,1.631,6.088l7.474,4.323c-3.142,3.695-7.405,6.408-12.335,7.422
		v-8.924c0-2.469-1.991-4.461-4.452-4.461c-2.469,0-4.464,1.992-4.464,4.461v8.924c-4.938-1.014-9.197-3.727-12.343-7.438
		l7.47-4.308c2.128-1.227,2.865-3.952,1.631-6.088c-1.242-2.134-3.979-2.867-6.095-1.633l-7.282,4.21
		c-0.629-2.06-1.073-4.194-1.073-6.44c0-2.615,0.536-5.087,1.378-7.418l6.985,4.038c0.697,0.398,1.463,0.593,2.231,0.593
		c1.531,0,3.034-0.801,3.872-2.226c1.233-2.136,0.496-4.869-1.636-6.096l-6.82-3.941c3.081-3.296,7.097-5.706,11.682-6.646v7.778
		c0,2.464,2.004,4.46,4.464,4.46c2.469,0,4.461-1.996,4.461-4.46v-7.778c4.584,0.94,8.615,3.342,11.686,6.64l-6.833,3.947
		c-2.14,1.234-2.865,3.959-1.631,6.096c0.825,1.424,2.32,2.226,3.863,2.226c0.765,0,1.53-0.188,2.236-0.593l7.001-4.045
		c0.85,2.332,1.37,4.811,1.37,7.426C324.428,207.361,323.995,209.503,323.361,211.555z"/>
	<path d="M344.894,303.65H93.806l-15.433,54.032h279.147L344.894,303.65z M128.945,341.183c-6.023,0-10.906-4.873-10.906-10.899
		c0-6.027,4.883-10.9,10.906-10.9c6.021,0,10.904,4.873,10.904,10.9C139.85,336.31,134.966,341.183,128.945,341.183z
		 M310.986,341.183c-6.019,0-10.892-4.873-10.892-10.899c0-6.027,4.873-10.9,10.892-10.9c6.02,0,10.908,4.873,10.908,10.9
		C321.895,336.31,317.006,341.183,310.986,341.183z"/>
</g>
<g>
</g>
<g>
</g>
<g>
</g>
<g>
</g>
<g>
</g>
<g>
</g>
<g>
</g>
<g>
</g>
<g>
</g>
<g>
</g>
<g>
</g>
<g>
</g>
<g>
</g>
<g>
</g>
<g>
</g>
</svg>
